<svg height="1837" viewBox="-5.244 4.007 720.886 521.058" width="2500" xmlns="http://www.w3.org/2000/svg"><path d="m630.667 16.759c0-1.761-.577-3.196-1.731-4.305s-2.96-1.664-5.417-1.664h-8.835v20.37h3.671v-8.372h5.163l3.164 8.372h3.88l-3.567-8.999c2.448-.985 3.672-2.785 3.672-5.402zm-4.79 2.253c-.647.557-1.632.836-2.955.836h-4.567v-6.134h4.865c1.144 0 2.035.276 2.671.828.637.552.956 1.276.956 2.172 0 .975-.323 1.741-.97 2.298zm-3.201-15.005c-9.356 0-16.968 7.612-16.968 16.968s7.612 16.968 16.968 16.968 16.968-7.612 16.968-16.968-7.612-16.968-16.968-16.968zm0 31.195c-7.845 0-14.227-6.382-14.227-14.227s6.382-14.227 14.227-14.227 14.227 6.382 14.227 14.227-6.383 14.227-14.227 14.227zm-458.015 387.179-48.515 102.684h11.448l15.996-33.786h44.236l16.15 33.786h11.084l-47.887-102.684zm-16.378 58.986 17.595-37.169 17.51 37.169zm202.506-58.986h10.261v102.684h-10.261zm183.833 55.007c8.609-.046 15.357-1.153 20.244-3.32 4.886-2.166 8.643-5.37 11.273-9.611 2.629-4.239 3.944-9.155 3.944-14.747 0-6.71-1.909-12.36-5.724-16.95-3.816-4.59-8.773-7.583-14.868-8.981-4.049-.932-11.774-1.399-23.175-1.399h-20.453v102.684h10.262v-47.677h5.801l36.929 47.677h12.695zm-18.498-10.052v-34.903h18.109c7.037 0 12.072.605 15.102 1.815 3.03 1.211 5.477 3.223 7.342 6.038 1.864 2.816 2.797 5.945 2.797 9.389 0 3.538-.92 6.737-2.762 9.599-1.841 2.862-4.405 4.945-7.691 6.247-3.287 1.304-8.355 1.955-15.207 1.955z"/><path d="m309.353 196.243c12.062-33.027 57.45-157.498 67.991-186.738 1.078-2.992 2.797-3.778 5.69-3.778h39.234c5.433 0 5.889.648 3.937 6.041-7.171 19.801-22.715 62.831-23.255 64.564l1.423.829c2.727-3.994 32.408-48.908 44.748-67.217 1.302-1.932 4.129-4.002 6.3-4.002h40.248c1.087 0 3.231-.151 3.561.838.167.499-.216 1.043-.712 1.75-8.541 12.151-43.694 61.926-56.745 80.809-1.907 2.759-3.238 6.434-3.442 9.771-2.003 32.728-3.7 65.474-5.508 98.214-.36 6.535-.62 6.774-7.251 6.787-13.588.027-27.176.022-40.763 0-6.931-.011-6.968-.173-6.161-6.868 2.727-22.601 5.397-45.208 8.042-67.818.192-1.644.025-3.332-.868-5.385-.961 2.111-19.623 51.929-27.772 74.805-1.467 4.12-3.759 5.331-7.918 5.334-12.04.003-23.439.006-35.157 0-8.117-.005-8.345-.479-5.622-7.936zm-59.941 7.84c13.251.043 26.058.033 39.753 0 3.845-.01 5.949-1.293 7.195-4.873 2.774-7.965 60.014-165.057 68.832-189.479.593-1.643.911-2.318.549-3.041-.433-.863-2.262-.755-3.219-.755h-41.521c-4.426 0-6.227 2.39-6.959 4.261-4.453 11.388-49.951 136.93-68.59 188.179-1.781 4.902-1.233 5.691 3.96 5.708zm-127.836.028h31.085c5.118 0 7.518-1.666 9.209-6.41 11.07-31.039 22.394-61.986 33.667-92.952.757-2.078 1.777-4.059 2.676-6.086 1.078 1.997 1.222 3.629 1.058 5.23-3.196 31.273-6.438 62.541-9.644 93.813-.624 6.088-.383 6.457 5.801 6.457h31.597c4.112 0 6.004-1.539 7.372-5.312 20.675-57.019 66.784-183.685 69.125-190.278.222-.626.495-1.348-.202-2.105-.687-.745-1.803-.723-2.732-.723h-35.675c-3.53 0-4.533 2.12-5.521 4.856-7.675 21.252-29.14 79.765-32.13 87.793l-1.505-.456s3.55-59.278 5.561-85.879c.384-5.067-1.272-6.406-6.173-6.406h-31.594c-4.074 0-5.993 1.406-7.371 5.214a63706.985 63706.985 0 0 1 -68.283 187.735c-1.506 4.122-.749 5.509 3.679 5.509zm409.14-16.086c2.624-8.276 5.318-16.753 5.537-17.356 2.186-6.043 1.959-6.425-4.259-6.45-8.325-.034-31.549.032-31.549.032s10.351-27.96 14.131-39.054c1.267-3.716 3.241-4.842 7.061-4.797 7.788.092 15.63-.055 23.444 0 2.81.019 4.779-.632 5.839-3.673 3.411-9.784 7.02-19.5 10.66-29.203 1.482-3.955.488-5.683-3.912-5.602-7.303.136-14.611-.073-21.917 0-3.807.037-4.827-1.365-3.445-5.011 3.312-8.738 6.541-17.512 9.531-26.364 1.174-3.476 3.112-4.724 6.721-4.724h25.986c3.218 0 4.908-2.136 5.615-3.895 4.176-10.397 7.845-20.998 11.623-31.554.42-1.176.407-1.877-.696-3.282-1.167-1.487-3.819-1.424-4.048-1.424-24.806-.005-49.612.2-74.417 0-4.63-.037-6.419 1.842-7.884 5.917-12.115 33.738-57.54 158.236-67.913 186.829-1.888 5.202-1.384 5.763 4.27 5.801 2.047.014 12.97.032 26.252.042-107.726 27.615-217.97 55.97-256.125 65.868-26.057 6.759-52.298 11.181-79.297 4.167-33.503-8.704-52.313-34.565-46.467-68.456 2.996-17.371 9.784-34.111 15.189-51.03 1.65-5.165 4.404-9.978 6.652-14.951-29.305 23.98-52.791 52.381-71.557 84.129-11.336 19.179-21.642 39.806-27.653 61.123-13.332 47.269 9.922 85.004 56.026 95.269 7.897 1.758 16.13 2.64 24.226 2.767 43.236.677 83.42-12.24 122.613-28.753 125.819-53.01 462.227-195.312 504.689-213.271-.039-.305-84.332 21.159-184.926 46.906z" fill="#010101"/></svg>